<svg xmlns="http://www.w3.org/2000/svg" version="1.1" xmlns:xlink="http://www.w3.org/1999/xlink" xmlns:svgjs="http://svgjs.com/svgjs" width="16" height="16"><svg width="16" height="16" viewBox="0 0 16 16" fill="none" xmlns="http://www.w3.org/2000/svg">
<rect width="16" height="16" rx="8" fill="white"></rect>
<path d="M12.8024 10.5324H11.9275V8.52728H10.8067C10.605 8.52728 10.4284 8.532 10.2771 8.54146C10.1289 8.54777 10.0028 8.57614 9.89875 8.62659C9.79471 8.67703 9.71274 8.75585 9.65284 8.86304C9.59609 8.97024 9.55983 9.12315 9.54407 9.32177L9.50623 9.86562C9.50308 9.88138 9.49993 9.91291 9.49678 9.9602C9.49362 10.0075 9.48732 10.0642 9.47786 10.1304C9.4684 10.1935 9.45579 10.2613 9.44003 10.3338C9.42426 10.4063 9.40535 10.4725 9.38328 10.5324H8.42326C8.44533 10.5041 8.46583 10.4757 8.48474 10.4473C8.50681 10.4158 8.5273 10.3732 8.54622 10.3196C8.56829 10.266 8.58721 10.1967 8.60297 10.1115C8.62189 10.0264 8.63923 9.91764 8.65499 9.78522L8.71174 9.13733C8.73066 8.96708 8.75273 8.82836 8.77795 8.72117C8.80632 8.61398 8.84416 8.5257 8.89145 8.45634C8.94189 8.38382 9.00652 8.3255 9.08534 8.28136C9.16416 8.23407 9.26347 8.18678 9.38328 8.13949C8.841 7.94402 8.56987 7.54362 8.56987 6.93829C8.56987 6.78696 8.58878 6.64823 8.62662 6.52212C8.66445 6.39286 8.71332 6.27779 8.77322 6.1769C8.83627 6.07601 8.90563 5.98773 8.9813 5.91207C9.06012 5.83325 9.13894 5.76862 9.21776 5.71817C9.31549 5.65512 9.42269 5.60783 9.53934 5.5763C9.65599 5.54162 9.77264 5.5164 9.88929 5.50063C10.0091 5.48487 10.1257 5.47541 10.2392 5.47226C10.3527 5.46911 10.4568 5.46753 10.5514 5.46753H12.8024V10.5324ZM11.9275 6.23365H10.6034C10.4899 6.23365 10.3922 6.23522 10.3102 6.23838C10.2282 6.23838 10.1557 6.24153 10.0926 6.24784C10.0327 6.25414 9.97757 6.26518 9.92713 6.28094C9.87668 6.2967 9.82466 6.31877 9.77106 6.34715C9.66072 6.4102 9.57559 6.50321 9.51569 6.62617C9.45894 6.74912 9.43057 6.87996 9.43057 7.01868C9.43057 7.15425 9.45106 7.26933 9.49205 7.36391C9.53303 7.45534 9.58663 7.53101 9.65284 7.59091C9.7222 7.65081 9.79786 7.6981 9.87983 7.73278C9.96496 7.76431 10.0501 7.78795 10.1352 7.80372C10.2235 7.81633 10.3086 7.82421 10.3906 7.82736C10.4726 7.83052 10.5435 7.83209 10.6034 7.83209H11.9275V6.23365Z" fill="black"></path>
<path d="M5.22162 7.39697H7.59564V8.27186H5.22162V7.39697Z" fill="black"></path>
<path d="M3.19757 5.53363H4.18596V6.56458H3.19757V5.53363ZM3.19757 9.50137H4.18596V10.5323H3.19757V9.50137Z" fill="black"></path>
</svg><style>@media (prefers-color-scheme: light) { :root { filter: none; } }
</style></svg>